<?xml version="1.0" standalone="no"?>
<!DOCTYPE svg PUBLIC "-//W3C//DTD SVG 20010904//EN"
 "http://www.w3.org/TR/2001/REC-SVG-20010904/DTD/svg10.dtd">
<svg version="1.0" xmlns="http://www.w3.org/2000/svg"
 width="512.000000pt" height="512.000000pt" viewBox="0 0 512.000000 512.000000"
 preserveAspectRatio="xMidYMid meet">

<g transform="translate(0.000000,512.000000) scale(0.100000,-0.100000)"
fill="#000000" stroke="none">
<path d="M1844 4894 c-198 -26 -315 -52 -434 -96 -381 -140 -511 -275 -511
-534 -1 -87 3 -109 26 -165 30 -70 62 -130 108 -197 l29 -44 -183 -181 c-234
-231 -368 -382 -424 -477 -109 -186 -173 -372 -209 -610 -27 -181 -36 -283
-36 -401 0 -112 29 -437 49 -549 35 -196 58 -300 89 -400 72 -234 82 -261 148
-399 92 -194 172 -272 362 -357 42 -19 86 -39 97 -44 39 -18 271 -91 382 -120
259 -67 609 -115 848 -115 240 0 540 42 725 102 92 30 276 125 367 190 37 26
183 163 325 303 142 140 263 256 267 258 5 2 41 -18 81 -43 39 -26 102 -61
138 -78 63 -30 74 -32 182 -32 101 0 122 3 175 26 82 34 143 82 196 154 52 70
57 78 108 199 75 175 106 288 142 516 40 256 34 441 -27 750 -92 470 -352 967
-702 1343 -50 54 -61 71 -52 82 18 21 187 74 307 96 85 16 148 20 293 19 102
-1 191 -1 198 -1 18 1 14 38 -5 47 -32 13 -300 16 -405 4 -127 -14 -209 -33
-313 -70 -208 -74 -299 -126 -417 -238 -102 -97 -127 -151 -76 -168 16 -5 33
9 84 64 63 69 169 154 231 185 l31 16 49 -53 c498 -545 756 -1156 754 -1791 0
-245 -27 -414 -102 -638 -105 -312 -222 -448 -412 -478 -131 -21 -178 -2 -492
205 -323 212 -329 217 -389 274 -67 65 -91 103 -180 283 -67 137 -85 165 -146
227 -116 118 -220 167 -415 196 -132 20 -188 38 -262 83 -74 46 -107 74 -155
133 -75 92 -100 164 -153 430 -29 145 -96 271 -192 361 -60 56 -92 77 -248
159 -313 164 -334 183 -506 460 -67 107 -136 218 -154 246 -97 147 -99 324 -6
462 107 156 456 298 842 342 131 15 394 8 534 -14 178 -29 526 -124 570 -156
6 -4 21 -11 35 -15 40 -12 225 -103 316 -155 77 -45 284 -183 346 -232 28 -22
54 -19 65 8 7 18 -30 56 -98 102 -19 12 -56 38 -84 56 -167 114 -447 261 -600
315 -284 101 -393 126 -693 161 -205 24 -201 24 -418 -6z m-694 -1196 c157
-248 212 -298 459 -422 237 -118 288 -156 362 -270 48 -72 72 -136 93 -246 57
-289 91 -366 215 -490 124 -123 212 -164 411 -190 119 -16 202 -46 284 -101
99 -66 142 -122 242 -319 122 -240 148 -267 417 -445 91 -60 167 -112 167
-115 0 -3 -116 -121 -257 -261 -165 -162 -283 -272 -328 -301 -101 -66 -279
-153 -360 -176 -432 -123 -1055 -106 -1587 44 -89 24 -328 111 -338 121 -3 3
20 2 50 -2 30 -4 98 -13 150 -20 133 -17 334 -18 475 -1 344 41 671 184 889
387 68 63 77 76 74 103 -5 52 -32 44 -113 -32 -187 -179 -442 -303 -746 -364
-99 -20 -143 -23 -339 -22 -235 0 -350 14 -555 65 -143 36 -135 27 -174 184
-48 192 -55 261 -56 510 0 195 4 259 19 340 38 201 131 441 234 600 46 71 147
200 176 224 26 22 20 60 -10 67 -31 8 -77 -33 -159 -141 -174 -229 -297 -544
-335 -855 -20 -166 -5 -524 25 -621 11 -32 -10 -21 -23 14 -36 91 -94 275
-121 382 -193 775 -129 1473 175 1900 48 67 502 533 521 534 6 1 35 -36 63
-81z"/>
<path d="M1855 4474 c-96 -13 -222 -38 -237 -46 -22 -11 -23 -41 -3 -58 12
-10 31 -10 98 4 145 28 330 39 493 27 366 -25 641 -103 998 -281 87 -43 164
-76 171 -74 20 8 26 33 15 54 -11 20 -244 142 -355 184 -38 15 -83 33 -100 41
-80 35 -288 91 -470 126 -88 17 -156 22 -345 24 -129 2 -248 1 -265 -1z"/>
</g>
</svg>
