<?xml version="1.0" standalone="no"?>
<!DOCTYPE svg PUBLIC "-//W3C//DTD SVG 20010904//EN"
 "http://www.w3.org/TR/2001/REC-SVG-20010904/DTD/svg10.dtd">
<svg version="1.0" xmlns="http://www.w3.org/2000/svg"
 width="512.000000pt" height="512.000000pt" viewBox="0 0 512.000000 512.000000"
 preserveAspectRatio="xMidYMid meet">

<g transform="translate(0.000000,512.000000) scale(0.100000,-0.100000)"
fill="#FFFFFF" stroke="none">

<path d="M2452 4580 c-234 -24 -467 -91 -677 -194 -229 -112 -384 -228 -608
-453 -94 -95 -119 -126 -123 -153 -7 -47 25 -97 76 -118 22 -10 40 -20 40 -24
0 -3 -32 -43 -71 -89 -311 -360 -473 -696 -535 -1109 -25 -160 -25 -578 0
-780 18 -154 54 -353 87 -485 35 -137 118 -381 137 -398 25 -22 159 -74 296
-113 247 -71 515 -108 908 -125 572 -24 870 47 1245 297 119 80 313 236 377
303 17 17 32 31 36 31 3 0 12 -16 18 -35 20 -52 65 -85 118 -85 40 0 51 6 95
47 76 71 243 261 321 366 434 578 510 1176 224 1764 -94 191 -186 330 -348
519 l-77 91 57 47 c106 86 304 166 410 166 50 0 98 27 116 65 9 18 16 38 16
45 0 30 -34 80 -66 95 -28 13 -46 14 -114 6 -205 -26 -391 -108 -525 -232
l-45 -42 -48 44 c-222 206 -534 398 -781 480 -182 60 -391 86 -559 69z m289
-225 c318 -55 633 -226 932 -503 369 -344 592 -693 672 -1055 25 -110 30 -351
11 -469 -48 -296 -205 -598 -461 -892 -66 -75 -69 -78 -78 -55 -14 36 0 231
24 339 35 154 35 181 4 218 -33 39 -81 50 -121 28 -16 -9 -60 -41 -99 -72 -66
-52 -259 -156 -316 -169 -27 -7 -27 -6 -34 65 -14 144 14 419 66 623 27 107
28 120 15 151 -18 43 -51 66 -97 66 -30 0 -51 -12 -123 -69 -135 -109 -256
-173 -403 -212 -89 -24 -366 -38 -393 -20 -26 18 -20 273 9 385 43 165 106
289 216 421 57 69 65 83 65 120 0 31 -7 49 -24 68 -38 41 -67 43 -190 13 -61
-14 -154 -33 -206 -42 -113 -18 -449 -31 -473 -18 -14 8 -13 18 17 90 39 97
99 201 159 275 81 100 88 140 33 195 -39 39 -64 42 -141 19 -87 -27 -226 -45
-340 -45 l-110 1 75 71 c174 165 395 309 602 392 82 32 254 80 323 89 79 10
309 6 386 -8z m-1146 -823 c-40 -81 -100 -259 -110 -323 -8 -56 11 -101 54
-124 51 -26 328 -41 507 -27 85 7 169 15 186 19 25 5 30 3 25 -8 -85 -195
-118 -300 -137 -434 -20 -145 -7 -384 26 -447 20 -39 55 -54 161 -68 218 -30
469 5 668 92 50 21 96 42 104 45 11 5 13 -1 8 -33 -4 -21 -12 -106 -18 -188
-14 -173 1 -448 26 -497 20 -37 53 -59 91 -59 46 0 194 45 304 92 52 22 100
42 105 44 7 3 10 -28 7 -93 l-4 -98 -51 -53 c-138 -143 -387 -337 -547 -427
-265 -150 -460 -195 -835 -195 -479 0 -903 59 -1169 163 l-59 23 -24 69 c-66
191 -123 461 -148 700 -19 180 -19 564 -1 705 52 386 221 709 579 1102 l78 85
104 2 104 1 -34 -68z"/>
</g>
</svg>
