<?xml version="1.0" standalone="no"?>
<!DOCTYPE svg PUBLIC "-//W3C//DTD SVG 20010904//EN"
 "http://www.w3.org/TR/2001/REC-SVG-20010904/DTD/svg10.dtd">
<svg version="1.0" xmlns="http://www.w3.org/2000/svg"
 width="72.000000pt" height="72.000000pt" viewBox="0 0 72.000000 72.000000"
 preserveAspectRatio="xMidYMid meet">

<g transform="translate(0.000000,72.000000) scale(0.100000,-0.100000)"
fill="#000000" stroke="none">
<path d="M305 637 c29 -10 28 -11 -37 -23 -63 -12 -158 -56 -158 -74 0 -8 50
-20 87 -20 23 0 23 -1 9 -22 -28 -39 -21 -58 22 -58 20 0 54 4 75 9 20 5 37 8
37 6 0 -1 -7 -17 -17 -35 -9 -19 -18 -56 -21 -83 l-5 -50 39 7 c21 4 59 16 83
27 38 17 42 17 37 2 -4 -9 -9 -43 -13 -75 -5 -53 -4 -58 13 -58 11 0 30 7 42
16 21 14 22 14 22 -9 0 -38 12 -87 21 -87 17 0 60 91 71 150 11 57 13 60 25
38 11 -21 12 -20 13 23 0 85 -25 143 -96 219 -75 79 -140 111 -227 109 -50 -1
-51 -1 -22 -12z"/>
<path d="M578 601 c-26 -23 -30 -32 -21 -42 9 -9 18 -7 39 10 15 11 37 21 50
21 26 0 30 10 12 28 -20 20 -46 14 -80 -17z"/>
<path d="M101 487 c-60 -73 -59 -310 1 -374 63 -68 308 -71 380 -6 10 9 18 29
18 45 0 31 -2 33 -29 16 -30 -18 -49 -3 -56 46 -4 25 -4 53 -1 62 5 12 2 15
-11 9 -10 -4 -42 -9 -70 -12 -65 -7 -73 6 -52 87 l15 57 -58 0 c-71 0 -87 11
-71 53 11 30 11 30 -22 30 -18 0 -38 -6 -44 -13z"/>
</g>
</svg>
